<svg width="20" height="20" viewBox="0 0 20 20" fill="none" xmlns="http://www.w3.org/2000/svg">
<path d="M17.3666 3.84166C16.941 3.41583 16.4356 3.07803 15.8794 2.84757C15.3232 2.61711 14.7271 2.49847 14.1249 2.49847C13.5227 2.49847 12.9266 2.61711 12.3704 2.84757C11.8142 3.07803 11.3088 3.41583 10.8833 3.84166L9.99992 4.725L9.11659 3.84166C8.25686 2.98192 7.09085 2.49883 5.87492 2.49883C4.65899 2.49883 3.49298 2.98192 2.63325 3.84166C1.77351 4.70139 1.29042 5.8674 1.29042 7.08333C1.29042 8.29926 1.77351 9.46527 2.63325 10.325L3.51659 11.2083L9.99992 17.6917L16.4833 11.2083L17.3666 10.325C17.7924 9.89943 18.1302 9.39407 18.3607 8.83785C18.5912 8.28164 18.7098 7.68557 18.7098 7.08333C18.7098 6.48109 18.5912 5.88502 18.3607 5.32881C18.1302 4.77259 17.7924 4.26723 17.3666 3.84166Z" stroke="currentColor" stroke-width="1.5" stroke-linecap="round" stroke-linejoin="round"/>
</svg>
