<svg width="30" height="28" viewBox="0 0 30 28" fill="none" xmlns="http://www.w3.org/2000/svg">
<path fill-rule="evenodd" clip-rule="evenodd" d="M8.57613 0.17176C6.20466 0.27459 4.1492 0.831786 2.48947 2.4201C0.82393 4.01676 0.251337 5.99993 0.144069 8.25526C0.0773897 9.66293 -0.312519 20.2976 0.818133 23.0865C1.5806 24.968 3.0823 26.4147 5.05804 27.1498C5.97995 27.4944 7.03236 27.7277 8.57613 27.7958C21.4844 28.3572 26.2694 28.0516 28.2871 23.0865C28.6452 22.2027 28.8916 21.1922 28.9597 19.7123C29.5497 7.27533 28.8641 4.57954 26.6144 2.4201C24.83 0.709496 22.731 -0.45495 8.57613 0.17176ZM8.69497 25.2945C7.28165 25.2334 6.51485 25.0071 6.00316 24.8167C4.71596 24.3359 3.74911 23.4106 3.25191 22.1807C2.39088 20.0616 2.67645 9.99667 2.75328 8.36805C2.82865 6.77278 3.16494 5.31481 4.33618 4.18924C5.78574 2.79963 7.65854 2.11859 20.4103 2.67166C22.0743 2.74392 23.595 3.06644 24.7691 4.18924C26.2186 5.57884 26.9376 7.3925 26.352 19.6002C26.2882 20.955 26.052 21.6902 25.8534 22.1807C24.5415 25.4116 21.5235 25.8601 8.69497 25.2945ZM20.5509 6.56541C20.5509 7.48534 21.3293 8.23338 22.2904 8.23338C23.2514 8.23338 24.0313 7.48534 24.0313 6.56541C24.0313 5.6455 23.2514 4.89813 22.2904 4.89813C21.3293 4.89813 20.5509 5.6455 20.5509 6.56541ZM7.10917 13.9831C7.10917 17.924 10.4417 21.1191 14.5526 21.1191C18.6636 21.1191 21.9961 17.924 21.9961 13.9831C21.9961 10.0422 18.6636 6.84911 14.5526 6.84911C10.4417 6.84911 7.10917 10.0422 7.10917 13.9831ZM9.72127 13.9831C9.72127 11.4262 11.884 9.35174 14.5526 9.35174C17.2213 9.35174 19.384 11.4262 19.384 13.9831C19.384 16.5414 17.2213 18.6165 14.5526 18.6165C11.884 18.6165 9.72127 16.5414 9.72127 13.9831Z" fill="#FAFAFA"/>
</svg>
