<svg width="30" height="20" viewBox="0 0 30 20" fill="none" xmlns="http://www.w3.org/2000/svg">
<path fill-rule="evenodd" clip-rule="evenodd" d="M12.3915 13.6206V5.76403C15.2937 7.07643 17.5414 8.34424 20.1999 9.7111C18.0072 10.8797 15.2937 12.1909 12.3915 13.6206ZM28.5655 1.85661C28.0649 1.22275 27.2116 0.729337 26.3032 0.565985C23.6332 0.0787147 6.97598 0.0773287 4.3074 0.565985C3.57895 0.697221 2.93028 1.01444 2.37306 1.50729C0.0251708 3.60155 0.760887 14.8324 1.32682 16.6516C1.5648 17.4391 1.87245 18.007 2.25989 18.3798C2.75907 18.8726 3.44253 19.2119 4.22758 19.3641C6.426 19.8011 17.7519 20.0455 26.2568 19.4298C27.0404 19.2985 27.734 18.9482 28.2811 18.4344C30.4519 16.3486 30.3039 4.487 28.5655 1.85661Z" fill="#FAFAFA"/>
</svg>
