<svg width="42" height="42" viewBox="0 0 42 42" fill="none" xmlns="http://www.w3.org/2000/svg">
<path d="M9.5 16.619C9.5 12.4112 12.9112 9 17.119 9C17.3294 9 17.5 9.17056 17.5 9.38095V20C17.5 21.1046 16.6046 22 15.5 22H10.119C9.77716 22 9.5 21.7228 9.5 21.381V16.619Z" fill="white"/>
<rect x="19.5" y="9" width="13" height="13" rx="6.5" fill="white"/>
<path d="M9.5 24.4286C9.5 24.1919 9.69188 24 9.92857 24H30.5C31.6046 24 32.5 24.8954 32.5 26V31.9048C32.5 32.5096 32.0096 33 31.4048 33H18.0714C13.3376 33 9.5 29.1624 9.5 24.4286Z" fill="white"/>
</svg>
