<svg width="110" height="26" viewBox="0 0 110 26" fill="none" xmlns="http://www.w3.org/2000/svg">
<path d="M0 8.11905C0 3.91116 3.41116 0.5 7.61905 0.5C7.82944 0.5 8 0.670558 8 0.880952V11.5C8 12.6046 7.10457 13.5 6 13.5H0.619048C0.277157 13.5 0 13.2228 0 12.881V8.11905Z" fill="white"/>
<rect x="10" y="0.5" width="13" height="13" rx="6.5" fill="white"/>
<path d="M0 15.9286C0 15.6919 0.191878 15.5 0.428571 15.5H21C22.1046 15.5 23 16.3954 23 17.5V23.4048C23 24.0096 22.5096 24.5 21.9048 24.5H8.57143C3.83756 24.5 0 20.6624 0 15.9286Z" fill="white"/>
<path d="M33.3291 24.5H29.5107C29.4001 24.5 29.3447 24.4447 29.3447 24.334L29.4111 0.975586C29.4111 0.887044 29.4554 0.842773 29.5439 0.842773H36.085C38.1657 0.842773 39.8092 1.47917 41.0156 2.75195C42.2331 4.01367 42.8418 5.7347 42.8418 7.91504C42.8418 9.50879 42.5264 10.8978 41.8955 12.082C41.2536 13.2552 40.4235 14.1628 39.4053 14.8047C38.387 15.4466 37.2803 15.7676 36.085 15.7676H33.4951V24.334C33.4951 24.4447 33.4398 24.5 33.3291 24.5ZM36.085 4.87695L33.4951 4.91016V11.6504H36.085C36.8044 11.6504 37.4297 11.3073 37.9609 10.6211C38.4922 9.92383 38.7578 9.02181 38.7578 7.91504C38.7578 7.02962 38.5199 6.30469 38.0439 5.74023C37.568 5.16471 36.915 4.87695 36.085 4.87695ZM48.3922 24.5H44.5406C44.4521 24.5 44.4078 24.4447 44.4078 24.334L44.441 0.975586C44.441 0.887044 44.4963 0.842773 44.607 0.842773H48.3922C48.5028 0.842773 48.5582 0.887044 48.5582 0.975586L48.525 10.2227H53.6217V0.975586C53.6217 0.887044 53.6659 0.842773 53.7545 0.842773H57.5396C57.6503 0.842773 57.7056 0.887044 57.7056 0.975586L57.772 24.334C57.772 24.4447 57.7167 24.5 57.606 24.5H53.7877C53.677 24.5 53.6217 24.4447 53.6217 24.334V14.3398H48.525V24.334C48.525 24.4447 48.4807 24.5 48.3922 24.5ZM66.3605 24.832C65.1541 24.832 64.0418 24.5221 63.0236 23.9023C62.0164 23.2826 61.2029 22.458 60.5832 21.4287C59.9744 20.3883 59.6701 19.2484 59.6701 18.0088L59.7033 7.23438C59.7033 5.97266 60.0076 4.83822 60.6164 3.83105C61.214 2.81283 62.022 1.99935 63.0402 1.39062C64.0584 0.770833 65.1652 0.460938 66.3605 0.460938C67.6001 0.460938 68.7124 0.765299 69.6974 1.37402C70.6935 1.98275 71.4904 2.80176 72.088 3.83105C72.6968 4.84928 73.0011 5.98372 73.0011 7.23438L73.0343 18.0088C73.0343 19.2484 72.7355 20.3828 72.1378 21.4121C71.5291 22.4525 70.7212 23.2826 69.714 23.9023C68.7069 24.5221 67.589 24.832 66.3605 24.832ZM66.3605 20.7314C67.0467 20.7314 67.6444 20.4548 68.1535 19.9014C68.6626 19.3369 68.9171 18.7061 68.9171 18.0088L68.8839 7.23438C68.8839 6.48177 68.646 5.84538 68.1701 5.3252C67.6942 4.80501 67.091 4.54492 66.3605 4.54492C65.6632 4.54492 65.0656 4.79948 64.5675 5.30859C64.0695 5.81771 63.8205 6.45964 63.8205 7.23438V18.0088C63.8205 18.7503 64.0695 19.3923 64.5675 19.9346C65.0656 20.4658 65.6632 20.7314 66.3605 20.7314ZM82.3865 24.5H78.5515C78.4519 24.5 78.4021 24.4447 78.4021 24.334V4.94336H73.9861C73.8754 4.94336 73.82 4.88802 73.82 4.77734L73.8532 0.975586C73.8532 0.887044 73.8975 0.842773 73.9861 0.842773H86.9021C87.0238 0.842773 87.0847 0.887044 87.0847 0.975586V4.77734C87.0847 4.88802 87.0404 4.94336 86.9519 4.94336H82.4861L82.5193 24.334C82.5193 24.4447 82.475 24.5 82.3865 24.5ZM94.5608 24.832C93.3545 24.832 92.2422 24.5221 91.2239 23.9023C90.2168 23.2826 89.4033 22.458 88.7835 21.4287C88.1748 20.3883 87.8704 19.2484 87.8704 18.0088L87.9036 7.23438C87.9036 5.97266 88.208 4.83822 88.8167 3.83105C89.4144 2.81283 90.2223 1.99935 91.2405 1.39062C92.2588 0.770833 93.3655 0.460938 94.5608 0.460938C95.8004 0.460938 96.9127 0.765299 97.8978 1.37402C98.8939 1.98275 99.6907 2.80176 100.288 3.83105C100.897 4.84928 101.201 5.98372 101.201 7.23438L101.235 18.0088C101.235 19.2484 100.936 20.3828 100.338 21.4121C99.7295 22.4525 98.9215 23.2826 97.9144 23.9023C96.9072 24.5221 95.7894 24.832 94.5608 24.832ZM94.5608 20.7314C95.247 20.7314 95.8447 20.4548 96.3538 19.9014C96.8629 19.3369 97.1175 18.7061 97.1175 18.0088L97.0843 7.23438C97.0843 6.48177 96.8463 5.84538 96.3704 5.3252C95.8945 4.80501 95.2913 4.54492 94.5608 4.54492C93.8636 4.54492 93.2659 4.79948 92.7679 5.30859C92.2698 5.81771 92.0208 6.45964 92.0208 7.23438V18.0088C92.0208 18.7503 92.2698 19.3923 92.7679 19.9346C93.2659 20.4658 93.8636 20.7314 94.5608 20.7314ZM107.349 24.5H103.498C103.387 24.5 103.332 24.4447 103.332 24.334L103.365 0.975586C103.365 0.887044 103.409 0.842773 103.498 0.842773H107.316C107.405 0.842773 107.449 0.887044 107.449 0.975586L107.482 24.334C107.482 24.4447 107.438 24.5 107.349 24.5Z" fill="white"/>
</svg>
