<svg width="30" height="28" viewBox="0 0 30 28" fill="none" xmlns="http://www.w3.org/2000/svg">
<path fill-rule="evenodd" clip-rule="evenodd" d="M14.6838 0C6.70496 0 0.29657 6.2085 0.29657 13.9419C0.29657 19.6819 3.80305 24.4851 8.88139 26.7114C8.88139 24.0969 8.86243 24.4339 10.9354 15.9325C9.79623 13.7232 10.682 10.0755 13.2328 10.0755C16.7728 10.0755 14.3676 15.1193 13.9583 17.1042C13.5955 18.6275 14.8047 19.7996 16.2556 19.7996C19.0366 19.7996 20.8488 16.4013 20.8488 12.4188C20.8488 9.37235 18.6739 7.14629 14.9256 7.14629C8.2608 7.14629 6.57093 14.2794 8.88139 16.5184C9.46264 17.364 8.88139 17.4036 8.88139 18.5104C8.47786 19.6807 5.254 17.9796 5.254 13.5905C5.254 9.60666 8.63956 4.92119 15.5301 4.92119C20.9698 4.92119 24.5971 8.78676 24.5971 12.8878C24.5971 18.3935 21.4534 22.3774 16.8602 22.3774C15.2883 22.3774 13.8373 21.5566 13.3537 20.6192C12.4753 23.9029 12.2975 25.5676 10.9354 27.4142C12.2655 27.7657 13.5955 28 15.0465 28C23.0253 28 29.4322 21.7914 29.4322 14.0595C29.0709 6.20892 22.6625 0 14.6838 0Z" fill="#FAFAFA"/>
</svg>
